<svg width="47" height="65" viewBox="0 0 47 65" fill="none" xmlns="http://www.w3.org/2000/svg">
<path d="M42.8384 28.5811L25.6027 1.13497C25.3526 0.783986 25.0223 0.497858 24.6392 0.300432C24.2561 0.103006 23.8314 0 23.4005 0C22.9695 0 22.5448 0.103006 22.1617 0.300432C21.7786 0.497858 21.4483 0.783986 21.1982 1.13497L3.88448 28.7137C1.47957 32.5929 0.139728 37.0375 0 41.5995C0 47.8057 2.4654 53.7577 6.85383 58.1462C11.2423 62.5346 17.1943 65 23.4005 65C29.6066 65 35.5586 62.5346 39.9471 58.1462C44.3355 53.7577 46.8009 47.8057 46.8009 41.5995C46.6514 36.9865 45.2844 32.4951 42.8384 28.5811ZM23.4005 59.7999C18.5753 59.7937 13.9496 57.8742 10.5377 54.4623C7.12581 51.0504 5.20629 46.4247 5.2001 41.5995C5.3383 37.9636 6.43046 34.428 8.36696 31.3476L10.798 27.4735L36.9909 53.6664C35.2897 55.5938 33.1983 57.1375 30.8553 58.1954C28.5123 59.2533 25.9712 59.7985 23.4005 59.7999Z" fill="#699BF7"/>
</svg>
