<svg width="47" height="94" viewBox="0 0 47 94" fill="none" xmlns="http://www.w3.org/2000/svg">
<g filter="url(#filter0_d_11_180)">
<g clip-path="url(#clip0_11_180)">
<g clip-path="url(#clip1_11_180)">
<path d="M23.1751 78.0273C29.6368 78.0273 34.8751 73.1115 34.8751 67.0476C34.8751 60.9836 29.6368 56.0678 23.1751 56.0678C16.7133 56.0678 11.475 60.9836 11.475 67.0476C11.475 73.1115 16.7133 78.0273 23.1751 78.0273Z" fill="#EF4444"/>
<path d="M23.1751 30.4485V67.0476" stroke="#EF4444" stroke-width="7.26658" stroke-miterlimit="10" stroke-linecap="round"/>
</g>
<g clip-path="url(#clip2_11_180)">
<path d="M24.4751 25.5686H33.5751M24.4751 15.8089H33.5751M24.4751 35.3284H33.5751M41.3752 66.8036C41.3752 76.3803 33.2501 84.1271 23.1751 84.1271C13.1 84.1271 4.975 76.3803 4.975 66.8036C4.96855 64.0217 5.67357 61.2791 7.03084 58.8059C8.38812 56.3328 10.358 54.2015 12.775 52.5909V11.0815C12.775 8.49304 13.8708 6.01061 15.8211 4.1803C17.7715 2.34999 20.4168 1.32173 23.1751 1.32173C25.9333 1.32173 28.5786 2.34999 30.529 4.1803C32.4794 6.01061 33.5751 8.49304 33.5751 11.0815V52.5604C35.9967 54.1739 37.9693 56.3102 39.3268 58.789C40.6843 61.2678 41.3868 64.0166 41.3752 66.8036Z" stroke="#CBD5E1" stroke-width="1.81664" stroke-linecap="round" stroke-linejoin="round"/>
</g>
</g>
</g>
<defs>
<filter id="filter0_d_11_180" x="0" y="0.254265" width="46.3502" height="92.7878" filterUnits="userSpaceOnUse" color-interpolation-filters="sRGB">
<feFlood flood-opacity="0" result="BackgroundImageFix"/>
<feColorMatrix in="SourceAlpha" type="matrix" values="0 0 0 0 0 0 0 0 0 0 0 0 0 0 0 0 0 0 127 0" result="hardAlpha"/>
<feOffset dy="4"/>
<feGaussianBlur stdDeviation="2"/>
<feComposite in2="hardAlpha" operator="out"/>
<feColorMatrix type="matrix" values="0 0 0 0 0 0 0 0 0 0 0 0 0 0 0 0 0 0 0.25 0"/>
<feBlend mode="normal" in2="BackgroundImageFix" result="effect1_dropShadow_11_180"/>
<feBlend mode="normal" in="SourceGraphic" in2="effect1_dropShadow_11_180" result="shape"/>
</filter>
<clipPath id="clip0_11_180">
<rect width="38.3502" height="84.7879" fill="white" transform="translate(4 0.254265)"/>
</clipPath>
<clipPath id="clip1_11_180">
<rect width="23.4001" height="51.2387" fill="white" transform="translate(11.475 26.7886)"/>
</clipPath>
<clipPath id="clip2_11_180">
<rect width="38.3502" height="84.7879" fill="white" transform="translate(4 0.254265)"/>
</clipPath>
</defs>
</svg>
