<svg width="45" height="45" viewBox="0 0 45 45" fill="none" xmlns="http://www.w3.org/2000/svg">
<g clip-path="url(#clip0_8_35)">
<path d="M22.3316 10.4941C15.7961 10.4941 10.498 15.7922 10.498 22.3242C10.498 28.8598 15.7961 34.1578 22.3316 34.1578C28.8671 34.1578 34.1652 28.8598 34.1652 22.3242C34.1652 15.7922 28.8671 10.4941 22.3316 10.4941ZM19.7863 8.33906H24.8804C25.116 8.33906 25.3339 8.22305 25.4711 8.02969C25.6046 7.83984 25.6363 7.59023 25.5554 7.36875L23.0066 0.471094C22.9011 0.186328 22.6339 0 22.3316 0C22.0293 0 21.7621 0.189844 21.6566 0.471094L19.1078 7.37227C19.0269 7.59375 19.0586 7.83984 19.1921 8.0332C19.3293 8.22656 19.5507 8.33906 19.7863 8.33906ZM34.0246 14.2383C34.1582 14.3754 34.3445 14.4492 34.5308 14.4492C34.573 14.4492 34.6152 14.4457 34.6574 14.4387C34.8894 14.3965 35.0828 14.2453 35.1847 14.0309L38.2644 7.34766C38.391 7.07344 38.3312 6.75352 38.1203 6.53906C37.9058 6.32461 37.5824 6.26836 37.3082 6.39141L30.6285 9.47461C30.414 9.57305 30.2629 9.76992 30.2207 10.002C30.1785 10.234 30.2558 10.4695 30.4175 10.6383L34.0246 14.2383ZM44.1918 21.6527L37.2871 19.1074C37.0656 19.0266 36.8195 19.0582 36.6261 19.1918C36.4328 19.3254 36.3203 19.5434 36.3203 19.7789L36.3238 24.873C36.3238 25.1086 36.4398 25.3301 36.6332 25.4637C36.7562 25.5445 36.9004 25.5902 37.0445 25.5902C37.1289 25.5902 37.2132 25.5762 37.2941 25.5445L44.1988 22.9992C44.48 22.8973 44.6699 22.6266 44.6699 22.3207C44.6629 22.0254 44.4765 21.7582 44.1918 21.6527ZM35.1847 30.6246C35.1362 30.5192 35.0629 30.4271 34.971 30.3561C34.8792 30.2851 34.7716 30.2373 34.6574 30.2168C34.4254 30.1781 34.1863 30.252 34.0246 30.4172L30.4211 34.0207C30.2558 34.1859 30.1785 34.425 30.2207 34.657C30.2629 34.8855 30.414 35.0859 30.6285 35.1844L37.3117 38.2641C37.4066 38.3098 37.5086 38.3273 37.614 38.3273C37.8004 38.3273 37.9832 38.2535 38.1203 38.1164C38.3347 37.902 38.391 37.582 38.2644 37.3078L35.1847 30.6246ZM24.8769 36.3129L19.7828 36.3164C19.5472 36.3164 19.3293 36.4324 19.1957 36.6258C19.0621 36.8191 19.0304 37.0652 19.1078 37.2832L21.6566 44.1879C21.7621 44.4691 22.0293 44.659 22.3316 44.659C22.6339 44.659 22.9011 44.4691 23.0066 44.1879L25.5554 37.2832C25.6363 37.0617 25.6046 36.8156 25.4711 36.6223C25.3339 36.4289 25.116 36.3129 24.8769 36.3129ZM10.6386 30.4172C10.4734 30.252 10.2379 30.1781 10.0058 30.2168C9.77379 30.259 9.57691 30.4102 9.47848 30.6246L6.39879 37.3078C6.27223 37.582 6.33199 37.9055 6.54644 38.1164C6.65019 38.2204 6.7834 38.2901 6.92804 38.3158C7.07267 38.3416 7.22174 38.3223 7.35504 38.2605L14.0382 35.1773C14.1437 35.1288 14.2358 35.0555 14.3068 34.9637C14.3778 34.8718 14.4256 34.7642 14.4461 34.65C14.4882 34.418 14.4109 34.1824 14.2457 34.0172L10.6386 30.4172ZM7.62574 25.5938C7.76988 25.5938 7.91402 25.548 8.03707 25.4637C8.23043 25.3301 8.34644 25.1086 8.34644 24.873L8.34293 19.7789C8.34295 19.6631 8.31501 19.5491 8.2615 19.4464C8.20798 19.3438 8.13047 19.2556 8.03555 19.1893C7.94063 19.123 7.83111 19.0807 7.71631 19.0658C7.6015 19.0509 7.4848 19.064 7.37613 19.1039L0.471443 21.6527C0.333194 21.7034 0.213844 21.7953 0.129529 21.9161C0.045214 22.0368 0 22.1805 0 22.3277C0 22.475 0.045214 22.6187 0.129529 22.7394C0.213844 22.8601 0.333194 22.952 0.471443 23.0027L7.37965 25.548C7.46051 25.5797 7.54137 25.5938 7.62574 25.5938ZM9.48199 14.0309C9.53068 14.1362 9.60408 14.2282 9.69596 14.2991C9.78784 14.37 9.89549 14.4177 10.0097 14.438C10.124 14.4584 10.2415 14.4509 10.3522 14.4161C10.4629 14.3813 10.5636 14.3203 10.6457 14.2383L14.2457 10.6348C14.4109 10.466 14.4847 10.2305 14.4425 9.99844C14.4004 9.76992 14.2492 9.57305 14.0347 9.47461L7.34801 6.39492C7.07379 6.26836 6.75387 6.32812 6.53941 6.54258C6.32496 6.75703 6.26871 7.07695 6.39527 7.35117L9.48199 14.0309Z" fill="#FCC21B"/>
</g>
<defs>
<clipPath id="clip0_8_35">
<rect width="44.6699" height="44.659" fill="white"/>
</clipPath>
</defs>
</svg>
