<svg width="45" height="45" viewBox="0 0 45 45" fill="none" xmlns="http://www.w3.org/2000/svg">
<g clip-path="url(#clip0_11_104)">
<path d="M17.3963 45C17.307 45 17.2193 44.977 17.1414 44.9333C17.0636 44.8897 16.9983 44.8267 16.9517 44.7506C16.9052 44.6744 16.879 44.5876 16.8756 44.4984C16.8723 44.4093 16.8918 44.3207 16.9325 44.2413L21.25 36.25H14.9025C14.685 36.25 14.355 36.2113 14.2 35.8788C14.0575 35.575 14.1287 35.2863 14.2587 35L18.75 23.75C18.8475 23.6663 27.3775 24.2413 27.5 24.2413C27.5892 24.2416 27.6768 24.2649 27.7545 24.3088C27.8321 24.3527 27.8972 24.4158 27.9435 24.4921C27.9898 24.5683 28.0157 24.6552 28.0188 24.7443C28.0219 24.8335 28.0021 24.922 27.9612 25.0013L23.19 32.5013H29.48C29.6975 32.5013 29.8913 32.6363 29.9688 32.84C30.0055 32.9398 30.011 33.0484 29.9844 33.1514C29.9579 33.2543 29.9005 33.3468 29.82 33.4163L17.7375 44.8738C17.6423 44.955 17.5214 44.9997 17.3963 45Z" fill="#F4900C"/>
<path d="M35 5C33.9688 5 32.975 5.15625 32.0387 5.44625C31.4837 3.85585 30.448 2.47735 29.075 1.50158C27.7019 0.525822 26.0595 0.00107713 24.375 0C20.57 0 17.385 2.62 16.5013 6.15125C15.5323 5.40801 14.3461 5.00354 13.125 5C11.6332 5 10.2024 5.59263 9.14752 6.64752C8.09263 7.70242 7.5 9.13316 7.5 10.625C7.5 11.38 7.65375 12.0975 7.92375 12.755C7.38005 12.5942 6.81693 12.5084 6.25 12.5C2.7975 12.5 0 15.2975 0 18.75C0 22.2025 2.7975 25 6.25 25H35C37.6522 25 40.1957 23.9464 42.0711 22.0711C43.9464 20.1957 45 17.6522 45 15C45 12.3478 43.9464 9.8043 42.0711 7.92893C40.1957 6.05357 37.6522 5 35 5Z" fill="#E1E8ED"/>
<path d="M13.7488 31.2013L13.6075 26.925L10.02 29.06C9.61585 29.2767 9.28037 29.6021 9.05151 29.9995C8.82266 30.3969 8.70957 30.8504 8.72503 31.3088C8.75141 31.9745 9.0381 32.6034 9.52341 33.0599C10.0087 33.5165 10.6539 33.7643 11.32 33.75C11.6477 33.7449 11.971 33.6745 12.2713 33.5431C12.5715 33.4117 12.8425 33.2219 13.0686 32.9846C13.2946 32.7474 13.4712 32.4675 13.588 32.1613C13.7048 31.8552 13.7594 31.5288 13.7488 31.2013ZM11.2488 41.2013L11.1075 36.925L7.52002 39.06C7.11585 39.2767 6.78037 39.6021 6.55151 39.9995C6.32266 40.3969 6.20957 40.8504 6.22503 41.3088C6.25141 41.9745 6.5381 42.6034 7.02341 43.0599C7.50872 43.5165 8.15387 43.7643 8.82003 43.75C9.14774 43.745 9.47118 43.6748 9.77146 43.5435C10.0717 43.4121 10.3429 43.2223 10.569 42.985C10.7951 42.7477 10.9716 42.4678 11.0883 42.1615C11.2051 41.8553 11.2596 41.5288 11.2488 41.2013ZM5.02503 34.2763L4.88378 30L1.29627 32.135C0.892101 32.3517 0.556616 32.6771 0.327762 33.0745C0.0989081 33.4719 -0.0141844 33.9254 0.00127507 34.3838C0.0273387 35.0497 0.313932 35.6787 0.799315 36.1353C1.2847 36.5919 1.93002 36.8396 2.59628 36.825C2.92399 36.82 3.24743 36.7498 3.54771 36.6185C3.84799 36.4871 4.1191 36.2973 4.3452 36.06C4.57131 35.8227 4.74787 35.5428 4.86459 35.2365C4.98132 34.9303 5.03585 34.6038 5.02503 34.2763ZM36.275 31.2013L36.1338 26.925L32.5475 29.06C32.1432 29.2764 31.8075 29.6018 31.5786 29.9993C31.3497 30.3967 31.2368 30.8504 31.2525 31.3088C31.2786 31.9747 31.5652 32.6037 32.0506 33.0603C32.5359 33.5169 33.1813 33.7646 33.8475 33.75C34.1751 33.7449 34.4984 33.6745 34.7986 33.5431C35.0987 33.4117 35.3697 33.2218 35.5956 32.9846C35.8216 32.7473 35.9981 32.4674 36.1147 32.1612C36.2314 31.8551 36.2859 31.5287 36.275 31.2013ZM33.775 42.4513L33.6338 38.175L30.0475 40.31C29.6432 40.5264 29.3075 40.8518 29.0786 41.2493C28.8497 41.6467 28.7368 42.1004 28.7525 42.5588C28.7786 43.2247 29.0652 43.8537 29.5506 44.3103C30.0359 44.7669 30.6813 45.0146 31.3475 45C31.6751 44.9949 31.9984 44.9245 32.2986 44.7931C32.5987 44.6617 32.8697 44.4718 33.0956 44.2346C33.3216 43.9973 33.4981 43.7174 33.6147 43.4112C33.7314 43.1051 33.7859 42.7787 33.775 42.4513ZM41.275 37.4513L41.1338 33.175L37.5475 35.31C37.1432 35.5264 36.8075 35.8518 36.5786 36.2493C36.3497 36.6467 36.2368 37.1004 36.2525 37.5588C36.2786 38.2247 36.5652 38.8537 37.0506 39.3103C37.5359 39.7669 38.1813 40.0146 38.8475 40C39.1751 39.9949 39.4984 39.9245 39.7986 39.7931C40.0987 39.6617 40.3697 39.4718 40.5956 39.2346C40.8216 38.9973 40.9981 38.7174 41.1147 38.4112C41.2314 38.1051 41.2859 37.7787 41.275 37.4513Z" fill="#5DADEC"/>
</g>
<defs>
<clipPath id="clip0_11_104">
<rect width="45" height="45" fill="white"/>
</clipPath>
</defs>
</svg>
