<svg width="45" height="45" viewBox="0 0 45 45" fill="none" xmlns="http://www.w3.org/2000/svg">
<path d="M39.3581 8.21672C33.8695 2.86875 25.1241 2.89125 19.6875 8.25469C18.1604 7.70026 16.4893 7.68684 14.9535 8.21669C13.4177 8.74653 12.1104 9.78753 11.25 11.1656C8.58325 11.3337 6.0808 12.5118 4.25202 14.46C2.42325 16.4081 1.40561 18.98 1.40625 21.652C1.40625 24.1214 2.26688 26.3953 3.68859 28.1939C4.67328 29.4861 5.94344 30.533 7.39982 31.2529C8.85619 31.9728 10.4593 32.3461 12.0839 32.3438H29.9644C32.068 32.3454 34.1416 31.8444 36.0124 30.8823C37.8832 29.9202 39.497 28.5251 40.7194 26.813C44.962 21.2442 44.5064 13.2398 39.3581 8.21672Z" fill="#B4ACBC"/>
<path d="M11.2458 4.16672C12.0614 2.39484 14.5645 2.35266 15.4364 4.09641C15.7598 4.75734 16.5755 4.99641 17.2083 4.64484L17.602 4.41984C19.1489 3.54797 21.0052 4.85578 20.7098 6.59953L20.6395 7.04953C20.513 7.76672 21.0192 8.45578 21.7505 8.52609L22.2005 8.58234C23.9583 8.77922 24.7036 10.9448 23.438 12.1823L23.1145 12.5058C22.5942 13.012 22.6083 13.8698 23.1427 14.362L23.4802 14.6714C24.788 15.8667 24.113 18.0464 22.3692 18.2995L21.9192 18.3698C21.188 18.4823 20.7098 19.1714 20.8505 19.8886L20.9348 20.3386C21.2864 22.0823 19.4583 23.4464 17.8973 22.6167L17.4895 22.4058C17.3353 22.3252 17.1663 22.2769 16.9928 22.2638C16.8193 22.2508 16.645 22.2732 16.4805 22.3298C16.316 22.3864 16.1647 22.476 16.036 22.593C15.9072 22.71 15.8037 22.8521 15.7317 23.0105C14.9161 24.7823 12.413 24.8245 11.5411 23.0808C11.4639 22.9255 11.356 22.7875 11.2239 22.6751C11.0918 22.5627 10.9383 22.4783 10.7726 22.427C10.607 22.3758 10.4326 22.3587 10.2601 22.3768C10.0876 22.3949 9.92063 22.4478 9.76922 22.5323L9.37547 22.7573C7.82859 23.6292 5.97234 22.3214 6.26765 20.5777L6.33797 20.1277C6.46453 19.4105 5.95828 18.7214 5.22703 18.6511L4.77703 18.5948C3.01922 18.398 2.27391 16.2323 3.53953 14.9948L3.86297 14.6714C4.38328 14.1652 4.36922 13.3073 3.83484 12.8152L3.49734 12.5058C2.18953 11.3105 2.86453 9.13078 4.60828 8.87766L5.05828 8.80734C5.78953 8.69484 6.26766 8.00578 6.12703 7.28859L6.04265 6.83859C5.69109 5.09484 7.50515 3.73078 9.08015 4.56047L9.48797 4.77141C10.1348 5.10891 10.9364 4.82766 11.2458 4.16672Z" fill="#FF822D"/>
<path d="M13.4677 21.9277C15.683 21.9277 17.8077 21.0476 19.3742 19.4811C20.9407 17.9146 21.8208 15.7899 21.8208 13.5745C21.8208 11.3591 20.9407 9.23449 19.3742 7.66798C17.8077 6.10146 15.683 5.22141 13.4677 5.22141C11.2523 5.22141 9.12762 6.10146 7.56111 7.66798C5.99459 9.23449 5.11453 11.3591 5.11453 13.5745C5.11453 15.7899 5.99459 17.9146 7.56111 19.4811C9.12762 21.0476 11.2523 21.9277 13.4677 21.9277Z" fill="#F9C23C"/>
<path d="M10.0083 41.1792L13.2567 36.7355C14.0583 35.6386 13.8192 34.1058 12.7223 33.3042C11.6255 32.5027 10.0927 32.7417 9.2911 33.8386L6.04266 38.2823C5.2411 39.3792 5.48016 40.912 6.57703 41.7136C7.67391 42.5152 9.20672 42.2761 10.0083 41.1792ZM22.5098 36.7355L19.2614 41.1792C18.4598 42.2761 16.927 42.5152 15.8302 41.7136C14.7333 40.912 14.4942 39.3792 15.2958 38.2823L18.5442 33.8386C19.3458 32.7417 20.8786 32.5027 21.9755 33.3042C23.0583 34.1058 23.2973 35.6386 22.5098 36.7355ZM31.7489 36.7355L28.5005 41.1792C27.6989 42.2761 26.1661 42.5152 25.0692 41.7136C23.9723 40.912 23.7333 39.3792 24.5348 38.2823L27.7833 33.8386C28.5848 32.7417 30.1177 32.5027 31.2145 33.3042C32.2973 34.1058 32.5364 35.6386 31.7489 36.7355Z" fill="#3F5FFF"/>
<path d="M20.4961 9.43594C25.3716 4.43391 33.3745 4.34953 38.3766 9.225C43.013 13.7475 43.4208 20.9616 39.5887 25.9777C38.4971 27.5128 37.0537 28.7642 35.3793 29.6271C33.7048 30.49 31.8481 30.9393 29.9644 30.9375H12.0839C10.6736 30.9398 9.28197 30.6153 8.01813 29.9894C6.75429 29.3636 5.65262 28.4535 4.79953 27.3305C3.51365 25.7171 2.81314 23.7152 2.8125 21.652C2.81187 20.4412 3.05294 19.2424 3.52158 18.1259C3.99022 17.0095 4.67699 15.9977 5.54166 15.1501C6.40632 14.3025 7.43148 13.6359 8.55706 13.1896C9.68263 12.7433 10.886 12.5261 12.0966 12.5508C12.4238 11.8395 12.8942 11.2034 13.4784 10.6821C14.0626 10.1609 14.748 9.76567 15.4918 9.52125C16.2356 9.27683 17.0218 9.18844 17.8013 9.2616C18.5808 9.33475 19.3368 9.56787 20.0222 9.94641C20.1754 9.77188 20.3334 9.60166 20.4961 9.43594Z" fill="#F3EEF8"/>
</svg>
