<svg width="65" height="65" viewBox="0 0 65 65" fill="none" xmlns="http://www.w3.org/2000/svg">
<g clip-path="url(#clip0_11_45)">
<path d="M32.5 15.407C23.0598 15.407 15.407 23.0597 15.407 32.4949C15.407 41.9351 23.0598 49.5879 32.5 49.5879C41.9402 49.5879 49.593 41.9351 49.593 32.4949C49.593 23.0597 41.9402 15.407 32.5 15.407ZM28.8234 12.2941H36.1817C36.5219 12.2941 36.8367 12.1265 37.0348 11.8472C37.2277 11.573 37.2734 11.2125 37.1567 10.8926L33.475 0.929279C33.3227 0.51795 32.9367 0.24881 32.5 0.24881C32.0633 0.24881 31.6774 0.523029 31.525 0.929279L27.8434 10.8976C27.7266 11.2176 27.7723 11.573 27.9652 11.8523C28.1633 12.1316 28.4832 12.2941 28.8234 12.2941ZM49.3899 20.8152C49.5828 21.0133 49.852 21.1199 50.1211 21.1199C50.182 21.1199 50.243 21.1148 50.3039 21.1047C50.6391 21.0437 50.9184 20.8254 51.0656 20.5156L55.5141 10.8621C55.6969 10.466 55.6106 10.0039 55.3059 9.69412C54.9961 9.38436 54.5289 9.30311 54.1328 9.48084L44.4844 13.9344C44.1746 14.0765 43.9563 14.3609 43.8953 14.6961C43.8344 15.0312 43.9461 15.3715 44.1797 15.6152L49.3899 20.8152ZM64.0758 31.525L54.1024 27.8484C53.7824 27.7316 53.427 27.7773 53.1477 27.9703C52.8684 28.1633 52.7059 28.4781 52.7059 28.8183L52.7109 36.1765C52.7109 36.5168 52.8785 36.8367 53.1578 37.0297C53.3356 37.1465 53.5438 37.2125 53.752 37.2125C53.8738 37.2125 53.9957 37.1922 54.1125 37.1465L64.0859 33.4699C64.4922 33.3226 64.7664 32.9316 64.7664 32.4898C64.7563 32.0633 64.4871 31.6773 64.0758 31.525ZM51.0656 44.4844C50.9955 44.3321 50.8896 44.199 50.757 44.0965C50.6244 43.9939 50.4689 43.9249 50.3039 43.8953C49.9688 43.8394 49.6235 43.9461 49.3899 44.1847L44.1848 49.3898C43.9461 49.6285 43.8344 49.9738 43.8953 50.309C43.9563 50.639 44.1746 50.9285 44.4844 51.0707L54.1379 55.5191C54.275 55.5851 54.4223 55.6105 54.5746 55.6105C54.8438 55.6105 55.1078 55.5039 55.3059 55.3058C55.6156 54.9961 55.6969 54.534 55.5141 54.1379L51.0656 44.4844ZM36.1766 52.7008L28.8184 52.7058C28.4781 52.7058 28.1633 52.8734 27.9703 53.1527C27.7774 53.432 27.7317 53.7875 27.8434 54.1023L31.525 64.0758C31.6774 64.482 32.0633 64.7562 32.5 64.7562C32.9367 64.7562 33.3227 64.482 33.475 64.0758L37.1567 54.1023C37.2734 53.7824 37.2277 53.4269 37.0348 53.1476C36.8367 52.8683 36.5219 52.7008 36.1766 52.7008ZM15.6102 44.1847C15.3715 43.9461 15.0313 43.8394 14.6961 43.8953C14.3609 43.9562 14.0766 44.1746 13.9344 44.4844L9.48595 54.1379C9.30314 54.534 9.38946 55.0012 9.69923 55.3058C9.84908 55.4561 10.0415 55.5567 10.2504 55.5939C10.4593 55.6312 10.6747 55.6033 10.8672 55.514L20.5207 51.0605C20.673 50.9904 20.806 50.8845 20.9086 50.7519C21.0112 50.6193 21.0802 50.4638 21.1098 50.2988C21.1707 49.9637 21.059 49.6234 20.8203 49.3847L15.6102 44.1847ZM11.2582 37.2176C11.4664 37.2176 11.6746 37.1515 11.8524 37.0297C12.1317 36.8367 12.2992 36.5168 12.2992 36.1765L12.2942 28.8183C12.2942 28.6511 12.2538 28.4864 12.1765 28.3381C12.0992 28.1898 11.9873 28.0624 11.8502 27.9667C11.7131 27.871 11.5549 27.8097 11.389 27.7883C11.2232 27.7668 11.0546 27.7857 10.8977 27.8433L0.924229 31.525C0.724536 31.5982 0.552142 31.731 0.430353 31.9053C0.308565 32.0797 0.243256 32.2873 0.243256 32.5C0.243256 32.7127 0.308565 32.9202 0.430353 33.0946C0.552142 33.269 0.724536 33.4018 0.924229 33.475L10.9027 37.1515C11.0195 37.1973 11.1363 37.2176 11.2582 37.2176ZM13.9395 20.5156C14.0098 20.6678 14.1158 20.8007 14.2485 20.9031C14.3813 21.0055 14.5367 21.0743 14.7018 21.1037C14.8668 21.1332 15.0365 21.1223 15.1964 21.0721C15.3563 21.0218 15.5018 20.9337 15.6203 20.8152L20.8203 15.6101C21.059 15.3664 21.1656 15.0262 21.1047 14.691C21.0438 14.3609 20.8254 14.0765 20.5156 13.9344L10.857 9.48592C10.4609 9.30311 9.99884 9.38943 9.68907 9.6992C9.37931 10.009 9.29806 10.4711 9.48087 10.8672L13.9395 20.5156Z" fill="#FCC21B"/>
</g>
<defs>
<clipPath id="clip0_11_45">
<rect width="65" height="65" fill="white"/>
</clipPath>
</defs>
</svg>
