<svg width="65" height="49" viewBox="0 0 65 49" fill="none" xmlns="http://www.w3.org/2000/svg">
<path fill-rule="evenodd" clip-rule="evenodd" d="M18.2681 19.2969C18.2666 16.3992 19.2184 13.5815 20.9767 11.2783C22.735 8.97506 25.2022 7.31424 27.9978 6.55193C30.7934 5.78962 33.7622 5.96816 36.4463 7.06001C39.1303 8.15187 41.3807 10.0964 42.8503 12.5938C39.1847 13.3855 35.8516 15.2861 33.3034 18.0375C32.7805 18.6339 32.5108 19.4107 32.5515 20.2028C32.5923 20.9949 32.9403 21.7399 33.5217 22.2795C34.1031 22.819 34.8719 23.1106 35.6648 23.0923C36.4578 23.0739 37.2123 22.7471 37.7681 22.1812C38.9542 20.8988 40.4028 19.8873 42.0153 19.2157C43.6278 18.5441 45.3662 18.2281 47.1119 18.2894C50.3005 18.4055 53.3164 19.7674 55.5119 22.0826C57.7074 24.3978 58.9075 27.4817 58.8543 30.672C58.8011 33.8622 57.4989 36.9044 55.2274 39.1452C52.956 41.3859 49.8963 42.6465 46.7056 42.6562H15.2213C12.797 42.6573 10.4716 41.6953 8.75667 39.9819C7.04171 38.2685 6.07765 35.9439 6.07657 33.5197C6.07549 31.0954 7.03748 28.7701 8.75092 27.0551C10.4644 25.3401 12.7889 24.3761 15.2131 24.375H15.335C15.768 24.3766 16.1963 24.2859 16.5915 24.109C16.9867 23.932 17.3396 23.6729 17.6267 23.3489C17.9139 23.0248 18.1287 22.6433 18.2568 22.2297C18.3849 21.8161 18.4234 21.3799 18.3697 20.9503C18.3017 20.4018 18.2678 19.8496 18.2681 19.2969ZM31.4713 2.93373e-08C26.477 -0.000275181 21.6772 1.93575 18.0808 5.40106C14.4844 8.86638 12.3716 13.5911 12.1866 18.5819C8.48858 19.3378 5.20273 21.4393 2.96547 24.4792C0.728214 27.5192 -0.301225 31.2812 0.0765517 35.0368C0.454328 38.7923 2.21243 42.2739 5.01033 44.8074C7.80823 47.3408 11.4468 48.7457 15.2213 48.75H46.7056C51.3153 48.755 55.7567 47.0184 59.1404 43.888C62.5241 40.7575 64.6002 36.4644 64.9531 31.8682C65.306 27.2721 63.9095 22.7123 61.0434 19.102C58.1772 15.4917 54.053 13.0975 49.4966 12.3988C48.0997 8.75079 45.6287 5.61256 42.4103 3.39877C39.1919 1.18498 35.3775 -0.000145345 31.4713 2.93373e-08Z" fill="#699BF7"/>
</svg>
