<svg width="65" height="65" viewBox="0 0 65 65" fill="none" xmlns="http://www.w3.org/2000/svg">
<mask id="mask0_30_12" style="mask-type:luminance" maskUnits="userSpaceOnUse" x="0" y="0" width="65" height="65">
<path d="M0 0H65V32.5H44.6875C41.4552 32.5 38.3552 33.784 36.0696 36.0696C33.784 38.3552 32.5 41.4552 32.5 44.6875V65H0V0Z" fill="white"/>
</mask>
<g mask="url(#mask0_30_12)">
<path d="M32.5 46.7188C40.3528 46.7188 46.7188 40.3528 46.7188 32.5C46.7188 24.6472 40.3528 18.2812 32.5 18.2812C24.6472 18.2812 18.2812 24.6472 18.2812 32.5C18.2812 40.3528 24.6472 46.7188 32.5 46.7188Z" stroke="#FBBF24" stroke-width="1.9043" stroke-miterlimit="10"/>
<path d="M32.5 10.444V2.03125M32.5 62.9687V54.556M48.1068 16.8932L54.0313 10.9687M10.9687 54.0313L16.9102 48.0898M16.9102 16.8763L10.9857 10.9518M54.0651 54.0313L48.1237 48.0898M10.444 32.5H2.03125M62.9687 32.5H54.556" stroke="#FBBF24" stroke-width="1.9043" stroke-miterlimit="10" stroke-linecap="round"/>
<path d="M32.1615 46.3802V44.6875C32.1615 41.3654 33.4812 38.1793 35.8303 35.8302C38.1794 33.4812 41.3654 32.1615 44.6875 32.1615H46.3802" stroke="#FBBF24" stroke-width="1.9043" stroke-miterlimit="10"/>
</g>
<path d="M46.3294 54.8438C44.7044 54.8438 43.4575 54.4601 42.5885 53.6927C41.7196 52.9253 41.2795 51.8364 41.2682 50.4258V42.6562H44.3659V50.4427C44.3659 51.684 45.026 52.3047 46.3463 52.3047C47.6667 52.3047 48.3212 51.684 48.3099 50.4427V42.6562H51.4075V50.4258C51.4075 51.8589 50.9674 52.9536 50.0872 53.7096C49.207 54.4657 47.9544 54.8438 46.3294 54.8438ZM59.1432 47.4805L60.5312 42.6562H63.6797L59.8542 54.4714H56.5703L52.7786 42.6562H55.9609L57.3489 47.4635L58.263 51.1875L59.1432 47.4805Z" fill="#374251"/>
</svg>
